<?xml version="1.0" encoding="utf-8"?>
<!-- Generator: Adobe Illustrator 19.0.0, SVG Export Plug-In . SVG Version: 6.00 Build 0)  -->
<svg version="1.1" id="Capa_1" xmlns="http://www.w3.org/2000/svg" xmlns:xlink="http://www.w3.org/1999/xlink" x="0px" y="0px"
	 viewBox="-390 241.5 256 256" style="enable-background:new -390 241.5 256 256;" xml:space="preserve">
<g>
	<path d="M-266.5,354v52.5c4.5,0.6,10.6,1,18.7,1c14.8,0,26.8-3.5,34.4-10.4c7.2-6.5,11.8-16.7,11.8-30.2c0-13-4.5-22-11.8-27.9
		c-7-5.9-16.8-8.8-31-8.8l-22.1,0.2v10.8l23.3-0.2c17.3,0,27,9.6,26.9,26.4c0,19.3-10.7,29.2-28.7,29.1c-2.8,0-5.7,0-7.7-0.3V354
		L-266.5,354L-266.5,354z"/>
	<path d="M-300,396.6c-7.2,0-14.3-2.9-17.2-4.7l-3.3,10.8c4.1,2.7,12,5.2,21.2,5.2c18.8,0,29.5-10.1,29.5-22.9
		c0-10.3-7.5-17.2-16.7-18.9v-0.2c9.3-3.3,14-9.8,14-17.7c0-9.9-8-18.5-23.6-18.5c-9.1,0-17.5,2.8-21.8,5.8l3.3,10.4
		c3.1-2.1,9.3-4.8,15.5-4.8c8.3,0,12.1,4.3,12.1,9.5c0,7.6-8.4,10.6-15,10.6h-6.4v10.5h6.6c8.7,0,17.1,3.8,17.1,12.8
		C-284.6,390.4-289,396.6-300,396.6z"/>
	<path d="M-346.3,296.1l41.6,13.3c0.3,0.4,0.8,0.7,1.3,0.7c0.2,0,0.3,0,0.5-0.1l0.1,0l39.5,12.7c0.1,0,0.3,0.1,0.5,0.1
		c0.2,0,0.3,0,0.5-0.1l37.9-12.2c0,0,0.1,0,0.1,0c0.4,0,0.7-0.1,1-0.4l83.3-26.7c0.6-0.2,1.1-0.8,1.1-1.5c0-0.7-0.4-1.3-1.1-1.5
		l-122.3-39.2c-0.3-0.1-0.6-0.1-0.9,0l-122.3,39.2c-0.6,0.2-1.1,0.8-1.1,1.5s0.4,1.3,1.1,1.5L-346.3,296.1
		C-346.3,296.1-346.3,296.1-346.3,296.1z M-302.9,306.8l-37.9-12.2l35-11.7l36.8,12.6L-302.9,306.8z M-301,281.3l37.6-12.6
		l37.2,12.4l-38,12.7L-301,281.3z M-262.9,319.6l-35-11.2l33.7-11.3l34.7,11.8L-262.9,319.6z M-224.7,307.3l-34.8-11.9l38.1-12.8
		l36,12L-224.7,307.3z M-183.3,269.9l37.6,12.1l-34.8,11.2c-0.1-0.1-0.3-0.2-0.4-0.2l-35.5-11.8L-183.3,269.9
		C-183.3,270-183.3,270-183.3,269.9z M-188.3,268.4l-33.1,11.1l-37.2-12.4l32.4-10.9L-188.3,268.4z M-262.9,244.4l31.8,10.2
		l-32.3,10.8l-31.9-10.6L-262.9,244.4z M-300.3,256.4c0,0,0.1,0.1,0.1,0.1l31.8,10.6l-37.5,12.6l-32.4-11.1L-300.3,256.4z
		 M-343,270.1c0.1,0.1,0.3,0.2,0.5,0.3l31.8,10.9l-35.1,11.8l-34.3-11L-343,270.1z"/>
	<path d="M-138.3,455.6l-122.3-39.9c-0.3-0.1-0.6-0.1-1,0l-122.3,39.9c-0.6,0.2-1.1,0.8-1.1,1.5c0,0.7,0.4,1.3,1.1,1.5l38.4,12.3
		c0.1,0.1,0.2,0.1,0.4,0.1l83.6,26.8c0.1,0.1,0.3,0.1,0.5,0.1c0.2,0,0.3,0,0.5-0.1l122.3-39.2c0.6-0.2,1.1-0.8,1.1-1.5
		C-137.2,456.4-137.7,455.8-138.3,455.6z M-224.5,430.7l37.7,12.3l-33.6,11.4l-37.3-12.5l33-11.1
		C-224.6,430.8-224.6,430.7-224.5,430.7z M-225.2,456l-36.7,12.4l-37.7-12.6l37-12.4L-225.2,456z M-261.1,418.8l31.7,10.4
		l-33.2,11.1l-31.7-10.6L-261.1,418.8z M-299.2,431.2C-299.2,431.2-299.2,431.3-299.2,431.2l31.8,10.7l-37,12.4l-32.4-10.8
		L-299.2,431.2z M-378.3,457l36.6-11.9c0.1,0,0.1,0.1,0.2,0.1l32.2,10.7l-35.4,11.9L-378.3,457z M-339.8,469.4l35.3-11.8l37.7,12.6
		l-34.4,11.7L-339.8,469.4z M-261.1,494.7l-35.2-11.3l34.3-11.6l35.4,11.8L-261.1,494.7z M-221.7,482.1c-0.2-0.2-0.3-0.3-0.6-0.4
		l-34.7-11.6l36.7-12.4l36.5,12.2L-221.7,482.1z M-178.9,468.3l-36.6-12.3l33.2-11.3c0.1,0,0.2-0.1,0.3-0.2l38.2,12.5L-178.9,468.3z
		"/>
	<path d="M-384.9,294.4v145.5c0,0.9,0.7,1.6,1.5,1.6c0.9,0,1.6-0.7,1.6-1.6V294.4c0-0.9-0.7-1.6-1.6-1.6
		C-384.2,292.9-384.9,293.5-384.9,294.4z"/>
	<path d="M-344.1,310.5v113.3c0,0.7,0.6,1.3,1.3,1.3c0.7,0,1.3-0.6,1.3-1.3V310.5c0-0.7-0.6-1.3-1.3-1.3
		C-343.5,309.2-344.1,309.8-344.1,310.5z"/>
	<path d="M-141.7,293.2c-0.9,0-1.6,0.7-1.6,1.6v145.5c0,0.9,0.7,1.6,1.6,1.6s1.6-0.7,1.6-1.6V294.7
		C-140.1,293.9-140.8,293.2-141.7,293.2z"/>
	<path d="M-183.6,310.8v113.3c0,0.7,0.6,1.3,1.3,1.3c0.7,0,1.3-0.6,1.3-1.3V310.8c0-0.7-0.6-1.3-1.3-1.3
		C-183,309.5-183.6,310.1-183.6,310.8z"/>
</g>
</svg>
