<?xml version="1.0" encoding="utf-8"?>
<!-- Generator: Adobe Illustrator 19.0.0, SVG Export Plug-In . SVG Version: 6.00 Build 0)  -->
<svg version="1.1" id="Layer_1" xmlns="http://www.w3.org/2000/svg" xmlns:xlink="http://www.w3.org/1999/xlink" x="0px" y="0px"
	 viewBox="0 0 256 256" style="enable-background:new 0 0 256 256;" xml:space="preserve">
<path id="XMLID_204_" d="M243.4,92.5c2.5,0,4.4-2,4.4-4.4c0-2.5-2-4.4-4.4-4.4h-13.3V65.9h13.3c2.5,0,4.4-2,4.4-4.4
	c0-2.5-2-4.4-4.4-4.4h-13.3v-8.9c0-12.2-10-22.2-22.2-22.2h-8.9V12.6c0-2.5-2-4.4-4.4-4.4c-2.5,0-4.4,2-4.4,4.4v13.3h-17.7V12.6
	c0-2.5-2-4.4-4.4-4.4s-4.4,2-4.4,4.4v13.3h-17.7V12.6c0-2.5-2-4.4-4.4-4.4c-2.5,0-4.4,2-4.4,4.4v13.3h-17.7V12.6
	c0-2.5-2-4.4-4.4-4.4c-2.5,0-4.4,2-4.4,4.4v13.3H92.5V12.6c0-2.5-2-4.4-4.4-4.4c-2.5,0-4.4,2-4.4,4.4v13.3H65.9V12.6
	c0-2.5-2-4.4-4.4-4.4c-2.5,0-4.4,2-4.4,4.4v13.3h-9c-12.2,0-22.2,10-22.2,22.2v8.9H12.6c-2.5,0-4.4,2-4.4,4.4s2,4.4,4.4,4.4h13.3
	v17.7H12.6c-2.5,0-4.4,2-4.4,4.4c0,2.5,2,4.4,4.4,4.4h13.3v17.7H12.6c-2.5,0-4.4,2-4.4,4.4c0,2.5,2,4.4,4.4,4.4h13.3v17.7H12.6
	c-2.5,0-4.4,2-4.4,4.4s2,4.4,4.4,4.4h13.3v17.7H12.6c-2.5,0-4.4,2-4.4,4.4c0,2.5,2,4.4,4.4,4.4h13.3v17.7H12.6c-2.5,0-4.4,2-4.4,4.4
	s2,4.4,4.4,4.4h13.3v8.9c0,12.2,10,22.2,22.2,22.2h9v13.3c0,2.5,2,4.4,4.4,4.4s4.4-2,4.4-4.4v-13.3h17.7v13.3c0,2.5,2,4.4,4.4,4.4
	c2.5,0,4.4-2,4.4-4.4v-13.3h17.7v13.3c0,2.5,2,4.4,4.4,4.4c2.5,0,4.4-2,4.4-4.4v-13.3h17.7v13.3c0,2.5,2,4.4,4.4,4.4
	c2.5,0,4.4-2,4.4-4.4v-13.3h17.7v13.3c0,2.5,2,4.4,4.4,4.4s4.4-2,4.4-4.4v-13.3h17.7v13.3c0,2.5,2,4.4,4.4,4.4c2.5,0,4.4-2,4.4-4.4
	v-13.3h8.9c12.2,0,22.2-10,22.2-22.2v-8.9h13.3c2.5,0,4.4-2,4.4-4.4s-2-4.4-4.4-4.4h-13.3v-17.7h13.3c2.5,0,4.4-2,4.4-4.4
	c0-2.5-2-4.4-4.4-4.4h-13.3v-17.7h13.3c2.5,0,4.4-2,4.4-4.4c0-2.5-2-4.4-4.4-4.4h-13.3v-17.7h13.3c2.5,0,4.4-2,4.4-4.4
	s-2-4.4-4.4-4.4h-13.3V92.5H243.4z M221.2,207.9c0,7.3-6,13.3-13.3,13.3H48.1c-7.3,0-13.3-6-13.3-13.3V48.1c0-7.3,6-13.3,13.3-13.3
	h159.8c7.3,0,13.3,6,13.3,13.3L221.2,207.9L221.2,207.9z"/>
<path id="XMLID_201_" d="M198.9,48.2H57.1c-4.9,0-8.9,4-8.9,8.9v141.9c0,4.9,4,8.9,8.9,8.9h141.9c4.9,0,8.9-4,8.9-8.9V57.1
	C207.8,52.2,203.8,48.2,198.9,48.2z M57.1,198.9V57.1h141.9l0,141.9L57.1,198.9L57.1,198.9z"/>
</svg>
