<?xml version="1.0" encoding="utf-8"?>
<!-- Generator: Adobe Illustrator 19.0.0, SVG Export Plug-In . SVG Version: 6.00 Build 0)  -->
<svg version="1.1" id="Layer_1" xmlns="http://www.w3.org/2000/svg" xmlns:xlink="http://www.w3.org/1999/xlink" x="0px" y="0px"
	 viewBox="0 0 256 256" style="enable-background:new 0 0 256 256;" xml:space="preserve">
<g id="XMLID_2_">
	<path id="XMLID_13_" d="M47.7,204.7c-0.9,0-1.9,0.4-2.5,1.1c-0.7,0.7-1.1,1.6-1.1,2.5s0.4,1.9,1.1,2.5c0.7,0.7,1.6,1.1,2.5,1.1
		c0.9,0,1.9-0.4,2.5-1.1c0.7-0.7,1.1-1.6,1.1-2.5s-0.4-1.9-1.1-2.5C49.5,205.1,48.6,204.7,47.7,204.7z"/>
	<path id="XMLID_6_" d="M244,167.5l-27.9,27.9c-2.3-1.4-5-2.2-7.8-2.2c-2.9,0-5.5,0.8-7.8,2.2l-6.1-6.1c3.5-5.8,2.5-13.7-2.7-18.9
		l-13.9-13.9c-7.6-7.6-11.8-17.8-11.8-28.5c0-10.8,4.2-20.9,11.8-28.5l13.9-13.9c5.2-5.2,6.1-13,2.7-18.9l6.1-6.1
		c2.3,1.4,5,2.2,7.8,2.2s5.5-0.8,7.8-2.2L244,88.5c0.7,0.7,1.6,1.1,2.5,1.1c0.9,0,1.8-0.3,2.5-1.1c1.4-1.4,1.4-3.7,0-5.1l-27.9-27.9
		c1.4-2.3,2.2-5,2.2-7.8c0-8.3-6.8-15.1-15.1-15.1c-2.9,0-5.5,0.8-7.8,2.2L172.6,6.9c-1.4-1.4-3.7-1.4-5.1,0c-1.4,1.4-1.4,3.7,0,5.1
		l27.9,27.9c-1.4,2.3-2.2,5-2.2,7.8c0,2.9,0.8,5.5,2.2,7.8l-6.1,6.1c-2.3-1.4-5-2.2-7.8-2.2c-4,0-7.8,1.6-10.6,4.4l-14.4,14.4
		C148.9,85.8,138.8,90,128,90s-20.9-4.2-28.5-11.8L85.1,63.8c-2.8-2.8-6.6-4.4-10.7-4.4c-2.8,0-5.5,0.8-7.8,2.2l-6.1-6.1
		c1.4-2.3,2.2-5,2.2-7.8c0-2.9-0.8-5.5-2.2-7.8L88.5,12c1.4-1.4,1.4-3.7,0-5.1c-1.4-1.4-3.7-1.4-5.1,0L55.5,34.8
		c-2.3-1.4-5-2.2-7.8-2.2c-8.3,0-15.1,6.8-15.1,15.1c0,2.9,0.8,5.5,2.2,7.8L6.9,83.4c-1.4,1.4-1.4,3.7,0,5.1
		c0.7,0.7,1.6,1.1,2.5,1.1c0.9,0,1.8-0.3,2.5-1.1l27.9-27.9c2.3,1.4,5,2.2,7.8,2.2s5.5-0.8,7.8-2.2l6.1,6.1
		c-3.5,5.8-2.5,13.7,2.7,18.9l13.9,13.9C85.8,107.1,90,117.2,90,128c0,10.8-4.2,20.9-11.8,28.5l-13.9,13.9c-5.2,5.2-6.1,13-2.7,18.9
		l-6.1,6.1c-2.3-1.4-5-2.2-7.8-2.2s-5.5,0.8-7.8,2.2L12,167.5c-1.4-1.4-3.7-1.4-5.1,0c-1.4,1.4-1.4,3.7,0,5.1l27.9,27.9
		c-1.4,2.3-2.2,4.9-2.2,7.8c0,8.3,6.8,15.1,15.1,15.1c2.9,0,5.5-0.8,7.8-2.2l27.9,27.9c0.7,0.7,1.6,1.1,2.5,1.1
		c0.9,0,1.8-0.4,2.5-1.1c1.4-1.4,1.4-3.7,0-5.1l-27.9-27.9c1.4-2.3,2.2-5,2.2-7.8c0-2.9-0.8-5.5-2.2-7.8l6.1-6.1
		c2.3,1.4,5,2.2,7.8,2.2c4,0,7.8-1.6,10.6-4.4l14.4-14.4c7.6-7.6,17.8-11.8,28.5-11.8s20.9,4.2,28.5,11.8l14.4,14.4
		c2.8,2.8,6.6,4.4,10.7,4.4c2.8,0,5.5-0.8,7.8-2.2l6.1,6.1c-1.4,2.3-2.2,5-2.2,7.8c0,2.9,0.8,5.5,2.2,7.8L167.5,244
		c-1.4,1.4-1.4,3.7,0,5.1c0.7,0.7,1.6,1.1,2.5,1.1c0.9,0,1.8-0.3,2.5-1.1l27.9-27.9c2.3,1.4,5,2.2,7.8,2.2c8.3,0,15.1-6.8,15.1-15.1
		c0-2.9-0.8-5.5-2.2-7.8l27.9-27.9c1.4-1.4,1.4-3.7,0-5.1C247.7,166.1,245.4,166.1,244,167.5z M208.3,39.8c4.4,0,7.9,3.5,7.9,7.9
		c0,4.4-3.5,7.9-7.9,7.9c-4.4,0-7.9-3.5-7.9-7.9C200.4,43.3,204,39.8,208.3,39.8z M39.8,47.7c0-4.4,3.5-7.9,7.9-7.9s7.9,3.5,7.9,7.9
		c0,4.4-3.5,7.9-7.9,7.9S39.8,52,39.8,47.7z M47.7,216.2c-4.4,0-7.9-3.5-7.9-7.9c0-4.4,3.5-7.9,7.9-7.9s7.9,3.5,7.9,7.9
		C55.6,212.7,52,216.2,47.7,216.2z M176,187.1l-14.4-14.4c-8.1-8.1-18.7-12.9-30-13.8v-19.5c0-2-1.6-3.6-3.6-3.6
		c-2,0-3.6,1.6-3.6,3.6V159c-11.3,0.8-21.9,5.7-30,13.8L80,187.1c-1.5,1.5-3.5,2.3-5.6,2.3c-2.3,0-4.5-1-6-2.8
		c-2.6-3.1-2.2-8.1,0.9-11.1l13.9-13.9c8.1-8.1,12.9-18.7,13.8-30h19.5c2,0,3.6-1.6,3.6-3.6c0-2-1.6-3.6-3.6-3.6H97
		c-0.8-11.3-5.7-21.9-13.8-30L69.3,80.5c-3.1-3.1-3.5-8.1-0.9-11.1c1.5-1.8,3.7-2.8,6-2.8c2.1,0,4.1,0.8,5.6,2.3l14.4,14.4
		c8.1,8.1,18.7,12.9,30,13.8v19.5c0,2,1.6,3.6,3.6,3.6s3.6-1.6,3.6-3.6V97c11.3-0.8,21.9-5.7,30-13.8L176,68.9
		c1.5-1.5,3.5-2.3,5.6-2.3c2.3,0,4.5,1,6,2.8c2.6,3.1,2.2,8.1-0.9,11.1l-13.9,13.9c-8.1,8.1-12.9,18.7-13.8,30h-19.5
		c-2,0-3.6,1.6-3.6,3.6c0,2,1.6,3.6,3.6,3.6H159c0.8,11.3,5.7,21.9,13.8,30l13.9,13.9c3.1,3.1,3.5,8.1,0.9,11.1
		c-1.5,1.8-3.7,2.8-6,2.8C179.4,189.4,177.5,188.6,176,187.1z M208.3,216.2c-4.4,0-7.9-3.5-7.9-7.9c0-4.4,3.5-7.9,7.9-7.9
		c4.4,0,7.9,3.5,7.9,7.9C216.2,212.7,212.7,216.2,208.3,216.2z"/>
	<path id="XMLID_5_" d="M208.3,204.7c-0.9,0-1.9,0.4-2.5,1.1c-0.7,0.7-1.1,1.6-1.1,2.5s0.4,1.9,1.1,2.5c0.7,0.7,1.6,1.1,2.5,1.1
		c0.9,0,1.9-0.4,2.5-1.1c0.7-0.7,1.1-1.6,1.1-2.5s-0.4-1.9-1.1-2.5C210.2,205.1,209.3,204.7,208.3,204.7z"/>
	<path id="XMLID_4_" d="M208.3,51.3c0.9,0,1.9-0.4,2.5-1.1c0.7-0.7,1.1-1.6,1.1-2.5c0-0.9-0.4-1.9-1.1-2.5c-0.7-0.7-1.6-1.1-2.5-1.1
		c-0.9,0-1.9,0.4-2.5,1.1c-0.7,0.7-1.1,1.6-1.1,2.5c0,0.9,0.4,1.9,1.1,2.5C206.5,50.9,207.4,51.3,208.3,51.3z"/>
	<path id="XMLID_3_" d="M47.7,44.1c-0.9,0-1.9,0.4-2.5,1.1c-0.7,0.7-1.1,1.6-1.1,2.5s0.4,1.9,1.1,2.5c0.7,0.7,1.6,1.1,2.5,1.1
		s1.9-0.4,2.5-1.1c0.7-0.7,1.1-1.6,1.1-2.5s-0.4-1.9-1.1-2.5C49.5,44.5,48.6,44.1,47.7,44.1z"/>
</g>
</svg>
