<?xml version="1.0" encoding="utf-8"?>
<!-- Generator: Adobe Illustrator 19.0.0, SVG Export Plug-In . SVG Version: 6.00 Build 0)  -->
<svg version="1.1" id="Layer_1" xmlns="http://www.w3.org/2000/svg" xmlns:xlink="http://www.w3.org/1999/xlink" x="0px" y="0px"
	 viewBox="0 0 256 256" style="enable-background:new 0 0 256 256;" xml:space="preserve">
<style type="text/css">
	.st0{fill:#010002;}
</style>
<path class="st0" d="M86.8,100.7c-11.5,0-20.8,9.3-20.8,20.8c0,11.5,9.3,20.8,20.8,20.8c11.5,0,20.8-9.3,20.8-20.8
	C107.6,110,98.3,100.7,86.8,100.7z M86.8,134.6c-7.2,0-13.1-5.9-13.1-13.1c0-7.2,5.9-13.1,13.1-13.1c7.2,0,13.1,5.9,13.1,13.1
	C99.9,128.8,94,134.6,86.8,134.6z"/>
<path class="st0" d="M170.7,70.2h-0.9l-0.8,0.4c-14.3,7.1-26,10.4-37.6,10.6c-0.4-4.9-0.4-14.3,3.9-20.4c2.2-3,5.1-4.8,9.1-5.4
	c1.8-0.3,3.6-0.6,5.4-0.8c20.3-3.1,43.2-6.7,49.2-26.1l-7.4-2.3c-4.5,14.8-24.1,17.8-43,20.8c-1.8,0.3-3.7,0.6-5.5,0.9
	c-6,1-10.8,3.9-14.1,8.6c-5.5,7.7-5.8,18.4-5.4,24.6c-10.3-1-21.4-4.3-35.7-10.7l-0.7-0.3h-0.8c-40.5,0-69.9,71.6-69.9,119.9
	c0,11.5,1.7,20.8,5,27.6c4,8.1,10.3,12.4,18.2,12.4c18,0,29-10.5,39.7-20.7c12.3-11.7,24.9-23.8,49.8-23.8
	c20.4,0,36.2,12.4,51.3,24.5c12.7,10,24.6,19.5,37.8,19.5c7.3,0,13-3.6,16.6-10.6c3-5.7,4.5-13.7,4.5-23.6
	C239.5,152.9,208.3,70.2,170.7,70.2z M228.1,215.2c-2.3,4.4-5.4,6.4-9.8,6.4c-10.5,0-21-8.3-33-17.8c-15.5-12.2-33-26.1-56.1-26.1
	c-27.9,0-42.3,13.8-55.1,25.9c-10.4,10-19.4,18.6-34.4,18.6c-4.9,0-8.6-2.7-11.2-8.1c-2.8-5.7-4.2-14.1-4.2-24.3
	c0-43.8,26.3-111.2,61.4-112.2C103.5,85.6,116.8,89,130,89c13.1,0,25.9-3.4,41.6-11.1c30,1.4,60.2,75.6,60.2,117.2
	C231.8,203.7,230.5,210.6,228.1,215.2z"/>
<path id="XMLID_198_" class="st0" d="M179.9,100.7c3.7,0,6.7,3,6.7,6.7s-3,6.7-6.7,6.7c-3.7,0-6.7-3-6.7-6.7
	S176.2,100.7,179.9,100.7z"/>
<path id="XMLID_197_" class="st0" d="M166.3,115.2c3.7,0,6.7,3,6.7,6.7c0,3.7-3,6.7-6.7,6.7s-6.7-3-6.7-6.7
	C159.5,118.2,162.5,115.2,166.3,115.2z"/>
<path id="XMLID_196_" class="st0" d="M189.8,118c3.7,0,6.7,3,6.7,6.7c0,3.7-3,6.7-6.7,6.7c-3.7,0-6.7-3-6.7-6.7
	C183,121.1,186,118,189.8,118z"/>
<path id="XMLID_195_" class="st0" d="M172.5,133.6c-3.1,2-4.1,6.2-2.1,9.3c2,3.1,6.2,4.1,9.3,2.1c3.1-2,4.1-6.2,2.1-9.3
	C179.8,132.5,175.6,131.6,172.5,133.6z"/>
</svg>
