<?xml version="1.0" encoding="utf-8"?>
<!-- Generator: Adobe Illustrator 19.0.0, SVG Export Plug-In . SVG Version: 6.00 Build 0)  -->
<svg version="1.1" id="Layer_1" xmlns="http://www.w3.org/2000/svg" xmlns:xlink="http://www.w3.org/1999/xlink" x="0px" y="0px"
	 viewBox="-288 139 256 256" enable-background="new -288 139 256 256" xml:space="preserve">
<path d="M-207.2,279.2c0,0-0.2,8.4-10.2,18.3c-10,10-19.6,10.5-19.6,10.5l41.2,41.2h-3.4v37.3h87.9v-37.3h-25.8L-207.2,279.2z
	 M-118.4,379.5h-74v-23.4h74V379.5L-118.4,379.5z"/>
<path d="M-243,255.5c7.3,0,13.3,6,13.3,13.3c0,7.3-6,13.3-13.3,13.3s-13.3-6-13.3-13.3C-256.3,261.5-250.3,255.5-243,255.5z"/>
<path d="M-209.3,268.8c0-1.2-0.1-2.3-0.2-3.4c-1.8-17.3-16.2-30.3-33.5-30.3c-18.6,0-33.7,15.1-33.7,33.7
	c0,18.6,15.1,33.7,33.7,33.7C-224.4,302.4-209.3,287.3-209.3,268.8z M-243,294c-13.9,0-25.2-11.3-25.2-25.3
	c0-13.9,11.3-25.3,25.2-25.3s25.3,11.3,25.3,25.3C-217.8,282.7-229.1,294-243,294z"/>
<path id="XMLID_193_" d="M-45.4,170.9c-1.2-0.7-2.7-0.7-3.9,0c-0.6,0.4-1.2,0.9-1.5,1.5l-24.6,43.9l-27.4-5.5l-17.5-31.8l9.2-23.4
	l50.2,3.1h0.4c0.6,0,1.2-0.1,1.8-0.5c1.2-0.7,2-1.9,2.1-3.3c0.1-1.1-0.3-2.1-1-2.9s-1.7-1.3-2.7-1.3l-53.3-3.3
	c-1.7,0-3.1,0.9-3.7,2.5l-7.9,20l0,0l-18.2,9.6l3.9,7.4l-86.4,45.8c0,0,6.5,0.2,15.6,15.1c9.1,14.9,4.9,21.9,4.9,21.9l85.2-46
	l3.9,7.4l15.8-8.4l4-1.6l-0.8-1l23.1,4.6c0.3,0.1,0.5,0.1,0.8,0.1c1.4,0,2.8-0.8,3.4-2l26-46.5C-42.8,174.4-43.5,171.9-45.4,170.9z"
	/>
</svg>
