<?xml version="1.0" encoding="utf-8"?>
<!-- Generator: Adobe Illustrator 19.0.0, SVG Export Plug-In . SVG Version: 6.00 Build 0)  -->
<svg version="1.1" id="Layer_1" xmlns="http://www.w3.org/2000/svg" xmlns:xlink="http://www.w3.org/1999/xlink" x="0px" y="0px"
	 viewBox="0 0 256 256" enable-background="new 0 0 256 256" xml:space="preserve">
<path id="XMLID_188_" fill="#0C0000" d="M149.8,84.3c0-2.3-0.4-4.6-1.1-6.8c-0.6-1.9-2.7-2.9-4.6-2.3c-1.9,0.6-2.9,2.7-2.3,4.6
	c0.5,1.5,0.7,3,0.7,4.6c0,8-6.5,14.6-14.6,14.6s-14.6-6.5-14.6-14.6S120,69.7,128,69.7c1.7,0,3.4,0.3,5,0.9c1.9,0.7,4-0.3,4.7-2.2
	s-0.3-4-2.2-4.7c-2.4-0.9-4.9-1.3-7.5-1.3c-12,0-21.8,9.8-21.8,21.8s9.8,21.8,21.8,21.8C140,106.2,149.8,96.4,149.8,84.3z"/>
<path fill="#0C0000" d="M176.6,165.2c-2.9-3.1-5.8-5.4-7.6-6.7c4.1-13.6,6.3-28.2,6.3-43.2c0-41.6-16.8-80.1-45-102.9
	c-1.3-1.1-3.2-1.1-4.6,0c-28.2,22.9-45,61.3-45,102.9c0,15,2.2,29.6,6.3,43.2c-1.8,1.3-4.7,3.6-7.6,6.7c-6.4,6.7-9.6,13.5-9.6,20.1
	v55.5c0,1.5,0.9,2.8,2.2,3.4c0.5,0.2,0.9,0.3,1.4,0.3c0.9,0,1.9-0.4,2.6-1.1l37.2-37.2c3.5,3.9,7.2,7.5,11.2,10.9v23.3
	c0,2,1.6,3.6,3.6,3.6c2,0,3.6-1.6,3.6-3.6v-23.3c4-3.3,7.7-6.9,11.2-10.9l37.2,37.2c0.7,0.7,1.6,1.1,2.6,1.1c0.5,0,0.9-0.1,1.4-0.3
	c1.4-0.6,2.2-1.9,2.2-3.4v-55.5C186.2,178.7,183,171.9,176.6,165.2z M77,232.1v-46.7c0-5.8,4.1-11.4,7.5-15c1.7-1.8,3.4-3.3,4.9-4.5
	c4.7,12.8,11.1,24.6,19.1,34.8L77,232.1z M131.6,207.3v-46.5c0-2-1.6-3.6-3.6-3.6c-2,0-3.6,1.6-3.6,3.6v46.5
	c-2.7-2.6-5.3-5.3-7.7-8.2c-0.2-0.3-0.4-0.6-0.6-0.8c-0.1-0.1-0.2-0.2-0.2-0.2C98.1,176.4,88,146.8,88,115.3
	c0-38.3,14.9-73.7,40-95.4c25.1,21.7,40,57.1,40,95.4c0,31.6-10.2,61.2-27.8,82.8c-0.1,0.1-0.2,0.1-0.2,0.2
	c-0.3,0.3-0.5,0.5-0.6,0.8C136.9,202,134.4,204.7,131.6,207.3z M179,232.1l-31.5-31.5c8-10.2,14.4-22,19.1-34.8
	c5.1,4.2,12.4,11.9,12.4,19.6V232.1z"/>
</svg>
