<?xml version="1.0" encoding="utf-8"?>
<!-- Generator: Adobe Illustrator 19.0.0, SVG Export Plug-In . SVG Version: 6.00 Build 0)  -->
<svg version="1.1" id="Layer_1" xmlns="http://www.w3.org/2000/svg" xmlns:xlink="http://www.w3.org/1999/xlink" x="0px" y="0px"
	 viewBox="0 0 256 256" enable-background="new 0 0 256 256" xml:space="preserve">
<path id="XMLID_193_" d="M128,93.8c-22.6,0-44,7.4-61.8,21.3c-1.8,1.4-2.1,4-0.7,5.9c0.8,1.1,2,1.6,3.3,1.6c0.9,0,1.8-0.3,2.5-0.9
	c16.4-12.8,36-19.6,56.7-19.6c20.7,0,40.3,6.7,56.7,19.5c1.8,1.4,4.4,1.1,5.8-0.8c1.4-1.8,1.1-4.5-0.7-5.9
	C172,101.2,150.6,93.8,128,93.8z M244.8,82.6c-33.7-26.3-74.1-40.2-116.8-40.2c-42.8,0-83.2,13.9-116.9,40.3c-1.8,1.4-2.1,4-0.7,5.9
	c0.8,1.1,2,1.6,3.3,1.6c0.9,0,1.8-0.3,2.5-0.9c32.3-25.2,70.9-38.6,111.8-38.6c40.8,0,79.5,13.3,111.7,38.5c1.8,1.4,4.4,1.1,5.8-0.8
	C247,86.7,246.7,84,244.8,82.6z M128,145.3c-11.1,0-21.6,3.6-30.4,10.5c-1.8,1.4-2.1,4-0.7,5.9c0.8,1.1,2,1.6,3.3,1.6
	c0.9,0,1.8-0.3,2.5-0.9c7.3-5.7,16.1-8.7,25.3-8.7c9.2,0,18,3,25.3,8.7c1.8,1.4,4.4,1.1,5.8-0.8c1.4-1.8,1.1-4.5-0.7-5.9
	C149.6,149,139.1,145.3,128,145.3z M128,191.6c-6,0-10.9,4.9-10.9,11s4.9,11,10.9,11c6,0,10.9-4.9,10.9-11S134,191.6,128,191.6z"/>
</svg>
